<?xml version="1.0" encoding="UTF-8"?>
<svg width="40px" height="40px" viewBox="0 0 40 40" version="1.1" xmlns="http://www.w3.org/2000/svg" xmlns:xlink="http://www.w3.org/1999/xlink">
    <!-- Generator: Sketch 49.1 (51147) - http://www.bohemiancoding.com/sketch -->
    <title>Clock</title>
    <desc>Created with Sketch.</desc>
    <defs></defs>
    <g id="Page-1" stroke="none" stroke-width="1" fill="none" fill-rule="evenodd">
        <g id="Desktop" transform="translate(-492.000000, -483.000000)" fill="#392F62" fill-rule="nonzero">
            <g id="Nav-Bar" transform="translate(0.000000, 473.000000)">
                <path d="M530.437778,22.2066667 C531.478889,24.7066667 532,27.3044444 532,30 C532,32.6955556 531.478889,35.2933333 530.437778,37.7933333 C529.422222,40.1766667 527.99,42.2922222 526.141111,44.1411111 C524.292222,45.99 522.176667,47.4222222 519.793333,48.4377778 C517.293333,49.4788889 514.695556,50 512,50 C509.734444,50 507.546667,49.6288889 505.437778,48.8866667 C503.38,48.17 501.498889,47.1544444 499.793333,45.84 C498.101111,44.5244444 496.648889,42.9755556 495.437778,41.1911111 C494.825556,40.2922222 494.295556,39.3555556 493.845556,38.3788889 C493.395556,37.4022222 493.028889,36.3866667 492.742222,35.3322222 L495.144444,34.6677778 C495.665556,36.5555556 496.468889,38.2877778 497.556667,39.8633333 C498.644444,41.4388889 499.93,42.7933333 501.414444,43.9255556 C502.898889,45.0577778 504.545556,45.9377778 506.355556,46.5622222 C508.165556,47.1866667 510.046667,47.5 512,47.5 C513.601111,47.5 515.147778,47.2911111 516.638889,46.8755556 C518.13,46.46 519.523333,45.87 520.818889,45.1077778 C522.114444,44.3455556 523.295556,43.4311111 524.363333,42.3633333 C525.431111,41.2955556 526.345556,40.1144444 527.107778,38.8188889 C527.87,37.5233333 528.458889,36.1333333 528.875556,34.6488889 C529.292222,33.1644444 529.5,31.6144444 529.5,30 C529.5,28.3988889 529.291111,26.8522222 528.875556,25.3611111 C528.46,23.87 527.87,22.4766667 527.107778,21.1811111 C526.345556,19.8855556 525.431111,18.7044444 524.363333,17.6366667 C523.295556,16.5688889 522.114444,15.6544444 520.818889,14.8922222 C519.523333,14.13 518.13,13.5411111 516.638889,13.1244444 C515.147778,12.7077778 513.601111,12.5 512,12.5 C510.307778,12.5 508.666667,12.7377778 507.077778,13.2133333 C505.488889,13.6888889 504.007778,14.3622222 502.634444,15.2344444 C501.261111,16.1066667 500.023333,17.1577778 498.923333,18.3888889 C497.823333,19.62 496.914444,20.99 496.198889,22.5 L502,22.5 L502,25 L492,25 L492,15 L494.5,15 L494.5,20.3511111 C494.721111,19.9344444 494.962222,19.5277778 495.222222,19.13 C495.482222,18.7322222 495.755556,18.3455556 496.042222,17.9677778 C497.266667,16.34 498.698889,14.9344444 500.338889,13.7488889 C502.057778,12.5244444 503.9,11.5944444 505.866667,10.9555556 C507.833333,10.3166667 509.877778,10 512,10 C514.695556,10 517.293333,10.5211111 519.793333,11.5622222 C522.176667,12.5777778 524.292222,14.01 526.141111,15.8588889 C527.99,17.7077778 529.422222,19.8244444 530.437778,22.2066667 Z M512,20 L512,30.7222222 L519.128889,37.8711111 L517.371111,39.6288889 L509.5,31.7777778 L509.5,20 L512,20 Z" id="Clock"></path>
            </g>
        </g>
    </g>
</svg>