<?xml version="1.0" encoding="UTF-8"?>
<svg width="22px" height="40px" viewBox="0 0 22 40" version="1.1" xmlns="http://www.w3.org/2000/svg" xmlns:xlink="http://www.w3.org/1999/xlink">
    <!-- Generator: Sketch 49.1 (51147) - http://www.bohemiancoding.com/sketch -->
    <title>Flask</title>
    <desc>Created with Sketch.</desc>
    <defs></defs>
    <g id="Page-1" stroke="none" stroke-width="1" fill="none" fill-rule="evenodd">
        <g id="Desktop" transform="translate(-186.000000, -483.000000)" fill="#392F62" fill-rule="nonzero">
            <g id="Nav-Bar" transform="translate(0.000000, 473.000000)">
                <path d="M195.317073,20.7317073 C197.490584,20.7317073 199.219512,18.9533807 199.219512,16.8292683 C199.219512,14.7051559 197.441186,12.9268293 195.317073,12.9268293 C193.192961,12.9268293 191.414634,14.7051559 191.414634,16.8292683 C191.414634,18.9533807 193.143563,20.7317073 195.317073,20.7317073 Z M195.317073,15.3967274 C196.107441,15.3967274 196.749614,16.0389009 196.749614,16.8292683 C196.749614,17.6196357 196.107441,18.2618092 195.317073,18.2618092 C194.526706,18.2618092 193.884532,17.6196357 193.884532,16.8292683 C193.884532,16.0389009 194.526706,15.3967274 195.317073,15.3967274 Z M201.170732,15.8536585 C202.796748,15.8536585 204.097561,14.5528455 204.097561,12.9268293 C204.097561,11.300813 202.796748,10 201.170732,10 C199.544715,10 198.243902,11.300813 198.243902,12.9268293 C198.243902,14.5528455 199.544715,15.8536585 201.170732,15.8536585 Z M201.170732,12.2764228 C201.495935,12.2764228 201.774681,12.5551684 201.774681,12.8803717 C201.774681,13.2055749 201.495935,13.4843206 201.170732,13.4843206 C200.845528,13.4843206 200.566783,13.2055749 200.566783,12.8803717 C200.566783,12.5551684 200.799071,12.2764228 201.170732,12.2764228 Z M204.882721,32.3746985 C204.882721,32.3318145 204.838029,32.3318145 204.882721,32.3746985 C204.838029,32.3318145 204.838029,32.3318145 204.793337,32.3318145 C203.139727,31.0024122 202.335267,29.0297507 202.335267,26.3280622 L202.335267,24.8271241 L204.078262,24.8271241 C204.703952,24.8271241 205.195566,24.3554007 205.195566,23.7550255 C205.195566,23.1546502 204.703952,22.6829268 204.078262,22.6829268 L190.491842,22.6829268 C189.866152,22.6829268 189.374538,23.1546502 189.374538,23.7550255 C189.374538,24.3554007 189.866152,24.8271241 190.491842,24.8271241 L192.234837,24.8271241 L192.234837,26.3280622 C192.234837,29.0297507 191.430378,31.0024122 189.776768,32.3318145 C189.776768,32.3318145 189.732076,32.3746985 189.732076,32.3746985 C189.732076,32.3746985 189.732076,32.3746985 189.687383,32.4175824 C185.486319,36.4486733 185.486319,42.967033 189.687383,46.9981238 C191.787915,49.0136693 194.514138,50 197.285052,50 C200.055967,50 202.782189,49.0136693 204.882721,46.9981238 C209.039093,42.924149 209.039093,36.3629054 204.882721,32.3746985 Z M194.469446,26.2851782 L194.469446,24.7842402 L200.145351,24.7842402 L200.145351,26.2851782 C200.145351,29.587242 201.217963,32.1173948 203.318495,33.8756366 C203.810109,34.34736 204.257031,34.9048512 204.614568,35.5052265 L190.000229,35.5052265 C190.357766,34.9477352 190.759995,34.3902439 191.296301,33.8756366 C193.396833,32.1173948 194.469446,29.587242 194.469446,26.2851782 Z M203.273803,45.4114179 C199.966582,48.5848298 194.55883,48.5848298 191.251609,45.4114179 C189.061693,43.3101045 188.346618,40.3511123 189.017001,37.6494237 L205.463719,37.6494237 C206.223486,40.3511123 205.463719,43.3101045 203.273803,45.4114179 Z" id="Flask"></path>
            </g>
        </g>
    </g>
</svg>