<?xml version="1.0" encoding="UTF-8"?>
<svg width="465px" height="623px" viewBox="0 0 465 623" version="1.1" xmlns="http://www.w3.org/2000/svg" xmlns:xlink="http://www.w3.org/1999/xlink">
    <!-- Generator: Sketch 50.2 (55047) - http://www.bohemiancoding.com/sketch -->
    <title>Icon cluster</title>
    <desc>Created with Sketch.</desc>
    <defs></defs>
    <g id="Page-1" stroke="none" stroke-width="1" fill="none" fill-rule="evenodd" opacity="0.416908482">
        <g id="Web-Design-1" transform="translate(-735.000000, -60.000000)" fill="#FFFFFF" fill-rule="nonzero">
            <g id="Icon-cluster" transform="translate(735.000000, 60.000000)">
                <path d="M394.398352,425.442308 C394.398352,462.53022 385.950549,473.862637 380.799451,477.159341 C376.472527,480.043956 374,484.989011 374,489.934066 C374,498.587912 381.005495,505.387363 389.453297,505.387363 L423.862637,505.387363 C426.335165,517.337912 436.843407,525.991758 449,525.991758 C461.156593,525.991758 471.664835,517.337912 474.137363,505.593407 L508.546703,505.593407 C516.994505,505.593407 524,498.587912 524,490.14011 C524,484.989011 521.527473,480.25 517.200549,477.365385 C512.049451,473.862637 503.601648,462.53022 503.601648,425.648352 C503.601648,391.032967 482.585165,377.228022 467.131868,371.458791 C467.337912,370.222527 467.543956,368.78022 467.543956,367.543956 C467.543956,357.241758 459.302198,349 449,349 C438.697802,349 430.456044,357.241758 430.456044,367.543956 C430.456044,368.78022 430.662088,370.222527 430.868132,371.458791 C415.414835,376.815934 394.398352,390.826923 394.398352,425.442308 Z M449,517.75 C441.376374,517.75 434.576923,512.598901 432.31044,505.593407 L465.68956,505.593407 C463.423077,512.598901 456.623626,517.75 449,517.75 Z M515.758242,490.14011 C515.758242,494.054945 512.461538,497.351648 508.546703,497.351648 L389.453297,497.351648 C385.538462,497.351648 382.241758,494.054945 382.241758,490.14011 C382.241758,488.07967 383.065934,486.225275 384.714286,484.782967 L513.697802,484.782967 C514.934066,486.225275 515.758242,488.07967 515.758242,490.14011 Z M449,357.035714 C454.769231,357.035714 459.302198,361.568681 459.302198,367.337912 C459.302198,367.956044 459.302198,368.368132 459.096154,368.986264 C450.648352,367.131868 442.818681,368.162088 438.697802,368.986264 C438.697802,368.368132 438.491758,367.956044 438.491758,367.337912 C438.697802,361.568681 443.230769,357.035714 449,357.035714 Z M438.07967,377.64011 L438.285714,377.64011 C438.285714,377.64011 442.818681,376.197802 449.206044,376.197802 C452.502747,376.197802 456.005495,376.60989 459.92033,377.846154 L460.126374,377.846154 C476.197802,382.379121 495.565934,394.32967 495.565934,425.648352 C495.565934,449.549451 498.862637,466.651099 505.662088,476.747253 L392.543956,476.747253 C399.137363,466.445055 402.64011,449.343407 402.64011,425.648352 C402.64011,394.123626 421.802198,382.173077 438.07967,377.64011 Z M417.475275,420.909341 C417.681319,420.909341 417.887363,420.909341 418.093407,420.909341 C420.153846,420.909341 421.802198,419.467033 422.214286,417.406593 C423.862637,405.25 436.431319,397.832418 436.637363,397.832418 C438.697802,396.802198 439.315934,394.123626 438.07967,392.269231 C437.049451,390.208791 434.370879,389.590659 432.516484,390.826923 C431.898352,391.239011 416.239011,400.304945 413.972527,416.582418 C413.766484,418.436813 415.208791,420.497253 417.475275,420.909341 Z" id="Shape"></path>
                <path d="M329.96614,422.029345 C340.801354,413.056433 346.896163,400.020316 346.896163,385.968397 C346.896163,373.10158 341.478555,360.573363 332.167043,351.769752 C322.68623,342.79684 310.158014,338.395034 297.121896,339.241535 C273.419865,340.595937 254.288939,360.234763 253.103837,383.767494 C252.426637,398.665914 258.690745,412.548533 270.03386,422.029345 C273.419865,424.738149 275.790068,428.124153 276.975169,431.510158 L272.911964,431.510158 C271.049661,431.510158 269.525959,433.03386 269.525959,434.896163 C269.525959,436.758465 271.049661,438.282167 272.911964,438.282167 L277.990971,438.282167 L277.990971,443.361174 L272.911964,443.361174 C271.049661,443.361174 269.525959,444.884876 269.525959,446.747178 C269.525959,448.609481 271.049661,450.133183 272.911964,450.133183 L278.329571,450.133183 C279.683973,458.259594 286.286682,464.354402 294.413093,464.354402 L305.756208,464.354402 C313.882619,464.354402 320.316027,458.428894 321.839729,450.133183 L327.088036,450.133183 C328.950339,450.133183 330.474041,448.609481 330.474041,446.747178 C330.474041,444.884876 328.950339,443.361174 327.088036,443.361174 L322.009029,443.361174 L322.009029,438.282167 L327.088036,438.282167 C328.950339,438.282167 330.474041,436.758465 330.474041,434.896163 C330.474041,433.03386 328.950339,431.510158 327.088036,431.510158 L323.024831,431.510158 C324.209932,428.124153 326.580135,424.738149 329.96614,422.029345 Z M305.586907,457.582393 L294.243792,457.582393 C289.841986,457.582393 286.286682,454.534989 285.10158,450.133183 L314.72912,450.133183 C313.544018,454.534989 309.988713,457.582393 305.586907,457.582393 Z M315.914221,431.510158 L284.085779,431.510158 C282.731377,426.092551 279.345372,421.013544 274.435666,416.781038 C264.616253,408.654628 259.367946,396.803612 259.875847,384.106095 C260.722348,363.959368 277.31377,347.198646 297.291196,345.844244 C298.137698,345.844244 298.984199,345.844244 299.8307,345.844244 C310.158014,345.844244 319.808126,349.568849 327.257336,356.679458 C335.383747,364.297968 339.954853,374.794582 339.954853,385.968397 C339.954853,397.988713 334.706546,409.162528 325.395034,416.781038 C320.654628,420.844244 317.268623,426.092551 315.914221,431.510158 Z M315.23702,443.361174 L284.76298,443.361174 L284.76298,438.282167 L315.23702,438.282167 L315.23702,443.361174 Z M227,382.074492 L239.930023,382.074492 C241.034592,382.074492 241.930023,382.969923 241.930023,384.074492 L241.930023,386.846501 C241.930023,387.951071 241.034592,388.846501 239.930023,388.846501 L227,388.846501 C225.895431,388.846501 225,387.951071 225,386.846501 L225,384.074492 C225,382.969923 225.895431,382.074492 227,382.074492 Z M361.76298,382.074492 L373,382.074492 C374.104569,382.074492 375,382.969923 375,384.074492 L375,386.846501 C375,387.951071 374.104569,388.846501 373,388.846501 L361.76298,388.846501 C360.65841,388.846501 359.76298,387.951071 359.76298,386.846501 L359.76298,384.074492 C359.76298,382.969923 360.65841,382.074492 361.76298,382.074492 Z M299.460497,313 L302.232506,313 C303.337075,313 304.232506,313.895431 304.232506,315 L304.232506,327.930023 C304.232506,329.034592 303.337075,329.930023 302.232506,329.930023 L299.460497,329.930023 C298.355927,329.930023 297.460497,329.034592 297.460497,327.930023 L297.460497,315 C297.460497,313.895431 298.355927,313 299.460497,313 Z M341.05526,348.198973 L349.958655,339.295578 C350.739696,338.514537 352.006014,338.514537 352.787055,339.295578 L354.747143,341.255666 C355.528184,342.036707 355.528184,343.303025 354.747143,344.084066 L345.843748,352.987461 C345.062707,353.768502 343.796389,353.768502 343.015348,352.987461 L341.05526,351.027373 C340.274219,350.246332 340.274219,348.980014 341.05526,348.198973 Z M246.958703,442.342291 L255.862097,433.438897 C256.643139,432.657856 257.909456,432.657856 258.690497,433.438897 L260.650585,435.398984 C261.431626,436.180025 261.431626,437.446343 260.650585,438.227384 L251.74719,447.130779 C250.966149,447.91182 249.699832,447.91182 248.91879,447.130779 L246.958703,445.170691 C246.177662,444.38965 246.177662,443.123332 246.958703,442.342291 Z M242.02524,339.245145 L243.985327,337.285057 C244.766368,336.504016 246.032686,336.504016 246.813727,337.285057 L255.717122,346.188452 C256.498163,346.969493 256.498163,348.235811 255.717122,349.016852 L253.757034,350.976939 C252.975993,351.75798 251.709675,351.75798 250.928634,350.976939 L242.02524,342.073545 C241.244199,341.292504 241.244199,340.026186 242.02524,339.245145 Z M336.169405,433.34221 L338.129492,431.382123 C338.910533,430.601082 340.176851,430.601082 340.957892,431.382123 L349.861287,440.285517 C350.642328,441.066558 350.642328,442.332876 349.861287,443.113917 L347.901199,445.074005 C347.120158,445.855046 345.85384,445.855046 345.072799,445.074005 L336.169405,436.17061 C335.388363,435.389569 335.388363,434.123251 336.169405,433.34221 Z" id="Rectangle-path"></path>
                <path d="M262.665924,52 C209.380846,52 189.670379,88.9153675 188.835189,90.5857461 L188,92.0890869 L188.668151,93.5924276 C189.503341,95.2628062 209.213808,133.848552 262.498886,133.848552 C315.783964,133.848552 336.329621,95.2628062 337.164811,93.5924276 L338,92.0890869 L337.164811,90.5857461 C336.496659,88.9153675 315.951002,52 262.665924,52 Z M195.683742,92.0890869 C199.024499,86.9109131 211.552339,69.3719376 237.610245,62.0222717 C228.757238,69.3719376 223.077951,80.5634744 223.077951,92.9242762 C223.077951,105.285078 228.757238,116.309577 237.443207,123.659243 C211.385301,115.975501 198.857461,97.6013363 195.683742,92.0890869 Z M263.167038,126.331849 C244.792873,126.331849 229.759465,111.298441 229.759465,92.9242762 C229.759465,74.5501114 244.792873,59.5167038 263.167038,59.5167038 C281.541203,59.5167038 296.57461,74.5501114 296.57461,92.9242762 C296.57461,111.298441 281.541203,126.331849 263.167038,126.331849 Z M289.391982,123.325167 C297.910913,115.975501 303.256125,105.11804 303.256125,92.9242762 C303.256125,80.7305122 297.743875,69.7060134 289.057906,62.3563474 C314.614699,69.8730512 327.309577,86.9109131 330.650334,92.2561247 C327.309577,97.6013363 314.781737,115.30735 289.391982,123.325167 Z M263.167038,71.2093541 C251.140312,71.2093541 241.452116,80.8975501 241.452116,92.9242762 C241.452116,104.951002 251.140312,114.639198 263.167038,114.639198 C275.193764,114.639198 284.88196,104.951002 284.88196,92.9242762 C284.88196,80.8975501 275.193764,71.2093541 263.167038,71.2093541 Z M263.167038,107.957684 C254.815145,107.957684 248.13363,101.276169 248.13363,92.9242762 C248.13363,84.5723831 254.815145,77.8908686 263.167038,77.8908686 C271.518931,77.8908686 278.200445,84.5723831 278.200445,92.9242762 C278.200445,101.276169 271.518931,107.957684 263.167038,107.957684 Z" id="Shape"></path>
                <path d="M142.405063,98.7737554 C137.468354,94.4066668 131.012658,92.3180592 124.556962,93.0775529 L62.278481,99.9129959 C50.5063291,101.24211 41.7721519,111.115528 41.7721519,122.697806 L41.7721519,182.128186 C37.4050633,177.761097 31.3291139,175.102869 24.6835443,175.102869 C11.0126582,175.102869 0,186.305401 0,199.976287 C0,214.02692 11.0126582,225.229452 24.6835443,225.229452 C38.164557,225.229452 49.1772152,214.216793 49.3670886,200.545907 L49.3670886,122.697806 C49.3670886,114.912996 55.2531646,108.267426 63.0379747,107.318059 L125.316456,100.482616 C129.683544,99.9129959 134.050633,101.431983 137.278481,104.280085 C140.506329,107.128186 142.405063,111.305401 142.405063,115.67249 L142.405063,170.545907 C137.848101,166.178819 131.772152,163.520591 125.126582,163.520591 C111.265823,163.520591 100.253165,174.723122 100.253165,188.394009 C100.253165,202.064895 111.455696,213.267426 125.126582,213.267426 C138.797468,213.647173 150,202.444641 150,188.773755 C150,188.773755 150,188.773755 150,188.773755 L150,115.862363 C150,109.406667 147.151899,103.140844 142.405063,98.7737554 Z M24.6835443,217.634515 C15.1898734,217.634515 7.59493671,209.849705 7.59493671,200.356034 C7.59493671,190.862363 15.1898734,183.077553 24.6835443,183.077553 C34.1772152,183.077553 41.7721519,190.862363 41.7721519,200.356034 C41.7721519,209.849705 34.1772152,217.634515 24.6835443,217.634515 Z M125.126582,206.052236 C115.632911,206.052236 107.848101,198.267426 107.848101,188.773755 C107.848101,179.280085 115.632911,171.495274 125.126582,171.495274 C134.620253,171.495274 142.405063,179.280085 142.405063,188.773755 C142.405063,198.267426 134.620253,206.052236 125.126582,206.052236 Z" id="Shape"></path>
                <path d="M177.218354,430.833652 L76.8680685,430.833652 L76.8680685,430.12696 C76.8680685,425.710134 73.1579347,422 68.7411087,422 L58.4940725,422 C54.0772465,422 50.3671127,425.710134 50.3671127,430.12696 L50.3671127,430.833652 L48.9537284,430.833652 C42.9468451,430.833652 38,435.780497 38,441.78738 L38,515.106691 C38,521.113575 42.9468451,526.06042 48.9537284,526.06042 L177.041681,526.06042 C183.048565,526.06042 187.99541,521.113575 187.99541,515.106691 L187.99541,441.78738 C188.172083,435.780497 183.225238,430.833652 177.218354,430.833652 Z M181.105161,515.283364 C181.105161,517.403441 179.338431,519.170171 177.218354,519.170171 L48.9537284,519.170171 C46.8336519,519.170171 45.0669215,517.403441 45.0669215,515.283364 L45.0669215,453.801147 L83.9349901,453.801147 C78.4581259,460.514722 75.1013381,469.171701 75.1013381,478.535372 C75.1013381,499.91281 92.5919689,517.403441 113.969407,517.403441 C122.273039,517.403441 129.86998,514.753345 136.230209,510.336519 L181.105161,510.336519 L181.105161,515.283364 Z M113.969407,446.734225 C131.460037,446.734225 145.770554,461.044742 145.770554,478.535372 C145.770554,496.026003 131.460037,510.336519 113.969407,510.336519 C96.4787758,510.336519 82.1682597,496.026003 82.1682597,478.535372 C82.1682597,461.044742 96.4787758,446.734225 113.969407,446.734225 Z M181.105161,503.269598 L144.003823,503.269598 C149.480687,496.556022 152.837475,487.899043 152.837475,478.535372 C152.837475,457.157935 135.346844,439.667304 113.969407,439.667304 C105.665774,439.667304 98.0688331,442.317399 91.7086038,446.734225 L45.0669215,446.734225 L45.0669215,441.78738 C45.0669215,439.667304 46.8336519,437.900573 48.9537284,437.900573 L52.4871892,437.900573 C55.1372848,437.900573 57.4340343,435.780497 57.4340343,432.953728 L57.4340343,429.950287 C57.4340343,429.420268 57.9640534,428.890249 58.4940725,428.890249 L68.7411087,428.890249 C69.2711278,428.890249 69.801147,429.420268 69.801147,429.950287 L69.801147,432.953728 C69.801147,435.603824 71.9212234,437.900573 74.747992,437.900573 L177.218354,437.900573 C179.338431,437.900573 181.105161,439.667304 181.105161,441.78738 L181.105161,503.269598 Z M113.969407,506.803059 C129.516634,506.803059 142.237093,494.0826 142.237093,478.535372 C142.237093,462.988145 129.516634,450.267686 113.969407,450.267686 C98.4221792,450.267686 85.7017204,462.988145 85.7017204,478.535372 C85.7017204,494.0826 98.4221792,506.803059 113.969407,506.803059 Z M113.969407,457.334608 C125.629827,457.334608 135.170171,466.874952 135.170171,478.535372 C135.170171,490.195793 125.629827,499.736137 113.969407,499.736137 C102.308986,499.736137 92.768642,490.195793 92.768642,478.535372 C92.768642,466.874952 102.308986,457.334608 113.969407,457.334608 Z" id="Shape"></path>
                <path d="M128.106682,280.960141 C131.975381,280.960141 135.14068,281.311841 135.14068,277.443142 C135.14068,273.574443 131.975381,273.926143 128.106682,273.926143 L82.0339977,273.926143 C78.1652989,273.926143 75,277.091442 75,280.960141 L75,391.745604 C75,395.614302 78.1652989,397.021102 82.0339977,397.021102 L198.094959,397.021102 C201.963658,397.021102 205.128957,395.614302 205.128957,391.745604 L205.128957,348.310668 C205.128957,344.44197 205.480657,341.276671 201.611958,341.276671 C197.743259,341.276671 198.094959,344.44197 198.094959,348.310668 L198.094959,389.987104 L82.0339977,389.987104 L82.0339977,280.960141 L128.106682,280.960141 Z M193.69871,255.110199 C190.885111,252.2966 186.488863,252.2966 183.675264,255.110199 L122.655334,316.305979 C121.424385,317.536928 120.720985,319.295428 120.545135,321.053927 L119.665885,351.124267 C119.665885,353.058617 120.369285,354.992966 121.776084,356.399766 C123.182884,357.806565 124.941383,358.509965 126.699883,358.509965 C126.699883,358.509965 136.781946,358.216882 156.946073,357.630715 C158.704572,357.630715 160.463072,356.927315 161.694021,355.520516 L222.889801,294.324736 C225.7034,291.511137 225.7034,287.114889 222.889801,284.30129 L193.69871,255.110199 Z M157.297773,350.596717 L126.875733,351.124267 L127.403283,320.702227 L175.208856,272.582009 L205.128957,302.765533 L157.297773,350.596717 Z M207.942556,299.776084 L178.223916,270.057444 L188.774912,259.506448 L218.493552,289.225088 L207.942556,299.776084 Z" id="Shape"></path>
                <path d="M215.704077,173.703132 C208.018692,181.388517 203.729175,191.397391 203.729175,202.299913 C203.729175,224.641149 221.780893,242.871597 243.943399,242.871597 L243.943399,235.722402 C225.53422,235.722402 210.69964,220.709092 210.87837,202.299913 C210.87837,193.363419 214.452968,185.141845 220.708514,178.886299 C226.96406,172.630753 235.364364,169.234885 244.122128,169.234885 C244.122128,169.234885 244.122128,169.234885 244.300858,169.234885 L244.300858,162.08569 C244.300858,162.08569 244.122128,162.08569 244.122128,162.08569 C233.577065,161.90696 223.389462,166.017747 215.704077,173.703132 Z M296.668714,236.973511 L290.413168,243.229057 L286.481111,239.475729 C295.417605,229.288126 300.422042,216.240844 300.600772,202.478643 C300.779502,171.379644 275.578588,146 244.479588,146 C244.479588,146 244.300858,146 244.300858,146 C213.380588,146 188.000945,171.200914 188.000945,202.121184 C187.822215,233.220183 213.023129,258.421097 244.122128,258.599827 C244.122128,258.599827 244.300858,258.599827 244.300858,258.599827 C258.063059,258.599827 271.289071,253.59539 281.476674,244.480166 L285.230002,248.233494 L278.974456,254.48904 L316.865191,292.558505 C319.36741,295.060723 322.584548,296.133103 325.622956,296.133103 C328.840093,296.133103 332.057231,294.881993 334.38072,292.558505 C339.206427,287.732798 339.206427,279.689953 334.38072,274.864246 L296.668714,236.973511 Z M278.974456,237.152241 C269.680502,246.267465 257.34814,251.450632 244.300858,251.450632 C244.300858,251.450632 244.122128,251.450632 244.122128,251.450632 C216.955186,251.271902 194.97141,229.288126 195.15014,202.121184 C195.32887,175.132971 217.312646,153.149195 244.300858,153.149195 C244.300858,153.149195 244.479588,153.149195 244.479588,153.149195 C271.646531,153.327925 293.630306,175.311701 293.451576,202.478643 C293.451576,215.704655 288.26841,228.037017 278.974456,237.152241 Z M329.555013,287.554068 C327.410254,289.698827 324.014387,289.698827 322.048358,287.554068 L288.983329,254.667769 L296.489984,247.161114 L329.376283,280.047413 C331.521042,282.013442 331.521042,285.40931 329.555013,287.554068 Z" id="Shape"></path>
                <path d="M430,103.77907 C414.127907,103.77907 401.22093,90.872093 401.22093,75 C401.22093,59.127907 414.127907,46.2209302 430,46.2209302 C445.872093,46.2209302 458.77907,59.127907 458.77907,75 C458.77907,76.9186047 457.209302,78.4883721 455.290698,78.4883721 C453.372093,78.4883721 451.802326,76.9186047 451.802326,75 C451.802326,62.9651163 442.034884,53.1976744 430,53.1976744 C417.965116,53.1976744 408.197674,62.9651163 408.197674,75 C408.197674,87.0348837 417.965116,96.8023256 430,96.8023256 C431.918605,96.8023256 433.488372,98.372093 433.488372,100.290698 C433.488372,102.209302 431.918605,103.77907 430,103.77907 Z M434.709302,150 L425.290698,150 C420.232558,150 416.046512,145.813953 416.046512,140.755814 L416.046512,135.174419 C416.046512,134.127907 415.348837,133.255814 414.302326,133.081395 C409.244186,131.686047 404.534884,129.767442 400,127.151163 C399.127907,126.627907 397.906977,126.802326 397.209302,127.5 L393.372093,131.337209 C389.709302,135 383.953488,135 380.290698,131.337209 L373.662791,124.709302 C370,121.046512 370,115.290698 373.662791,111.627907 L377.5,107.790698 C378.197674,107.093023 378.372093,106.046512 377.848837,105 C375.232558,100.465116 373.313953,95.5813953 371.918605,90.6976744 C371.569767,89.6511628 370.697674,88.9534884 369.825581,88.9534884 L364.244186,88.9534884 C359.186047,88.9534884 355,84.7674419 355,79.7093023 L355,70.2906977 C355,65.2325581 359.186047,61.0465116 364.244186,61.0465116 L369.825581,61.0465116 C370.872093,61.0465116 371.744186,60.3488372 371.918605,59.3023256 C373.313953,54.244186 375.232558,49.5348837 377.848837,45 C378.372093,44.127907 378.197674,42.9069767 377.5,42.2093023 L373.662791,38.372093 C370,34.7093023 370,28.9534884 373.662791,25.2906977 L380.290698,18.6627907 C383.953488,15 389.709302,15 393.372093,18.6627907 L397.209302,22.5 C397.906977,23.1976744 398.953488,23.372093 400,22.8488372 C404.534884,20.2325581 409.418605,18.3139535 414.302326,16.9186047 C415.348837,16.5697674 416.046512,15.6976744 416.046512,14.8255814 L416.046512,9.24418605 C416.046512,4.18604651 420.232558,0 425.290698,0 L434.709302,0 C439.767442,0 443.953488,4.18604651 443.953488,9.24418605 L443.953488,14.8255814 C443.953488,15.872093 444.651163,16.744186 445.697674,16.9186047 C450.755814,18.3139535 455.465116,20.2325581 460,22.8488372 C460.872093,23.372093 462.093023,23.1976744 462.790698,22.5 L466.627907,18.6627907 C470.290698,15 476.046512,15 479.709302,18.6627907 L486.337209,25.2906977 C490,28.9534884 490,34.7093023 486.337209,38.372093 L482.5,42.2093023 C481.802326,42.9069767 481.627907,43.9534884 482.151163,45 C484.767442,49.5348837 486.686047,54.4186047 488.081395,59.3023256 C488.430233,60.3488372 489.302326,61.0465116 490.174419,61.0465116 L495.755814,61.0465116 C500.813953,61.0465116 505,65.2325581 505,70.2906977 L505,79.7093023 C505,84.7674419 500.813953,88.9534884 495.755814,88.9534884 L490.174419,88.9534884 C489.127907,88.9534884 488.255814,89.6511628 488.081395,90.6976744 C486.686047,95.755814 484.767442,100.465116 482.151163,105 C481.627907,105.872093 481.802326,107.093023 482.5,107.790698 L486.337209,111.627907 C490,115.290698 490,121.046512 486.337209,124.709302 L479.709302,131.337209 C476.046512,135 470.290698,135 466.627907,131.337209 L462.790698,127.5 C462.093023,126.802326 461.046512,126.627907 460,127.151163 C455.465116,129.767442 450.581395,131.686047 445.697674,133.081395 C444.651163,133.430233 443.953488,134.302326 443.953488,135.174419 L443.953488,140.755814 C443.953488,145.813953 439.767442,150 434.709302,150 Z M398.77907,119.825581 C400.348837,119.825581 401.918605,120.174419 403.488372,121.046512 C407.5,123.313953 411.686047,125.05814 416.22093,126.27907 C420.232558,127.325581 423.023256,130.988372 423.023256,135.174419 L423.023256,140.755814 C423.023256,141.976744 424.069767,143.023256 425.290698,143.023256 L434.709302,143.023256 C435.930233,143.023256 436.976744,141.976744 436.976744,140.755814 L436.976744,135.174419 C436.976744,130.988372 439.767442,127.325581 443.77907,126.27907 C448.139535,125.05814 452.5,123.313953 456.511628,121.046512 C460.174419,118.953488 464.709302,119.476744 467.674419,122.44186 L471.511628,126.27907 C472.383721,127.151163 473.77907,127.151163 474.651163,126.27907 L481.27907,119.651163 C482.151163,118.77907 482.151163,117.383721 481.27907,116.511628 L477.44186,112.674419 C474.476744,109.709302 473.953488,105.174419 476.046512,101.511628 C478.313953,97.5 480.05814,93.3139535 481.27907,88.7790698 C482.325581,84.7674419 485.988372,81.9767442 490.174419,81.9767442 L495.755814,81.9767442 C496.976744,81.9767442 498.023256,80.9302326 498.023256,79.7093023 L498.023256,70.2906977 C498.023256,69.0697674 496.976744,68.0232558 495.755814,68.0232558 L490.174419,68.0232558 C485.988372,68.0232558 482.325581,65.2325581 481.27907,61.2209302 C480.05814,56.8604651 478.313953,52.5 476.046512,48.4883721 C473.953488,44.8255814 474.476744,40.2906977 477.44186,37.3255814 L481.27907,33.4883721 C482.151163,32.6162791 482.151163,31.2209302 481.27907,30.3488372 L474.651163,23.7209302 C473.77907,22.8488372 472.383721,22.8488372 471.511628,23.7209302 L467.674419,27.5581395 C464.709302,30.5232558 460.174419,31.0465116 456.511628,28.9534884 C452.5,26.6860465 448.313953,24.9418605 443.77907,23.7209302 C439.767442,22.6744186 436.976744,19.0116279 436.976744,14.8255814 L436.976744,9.24418605 C436.976744,8.02325581 435.930233,6.97674419 434.709302,6.97674419 L425.290698,6.97674419 C424.069767,6.97674419 423.023256,8.02325581 423.023256,9.24418605 L423.023256,14.8255814 C423.023256,19.0116279 420.232558,22.6744186 416.22093,23.7209302 C411.860465,24.9418605 407.5,26.6860465 403.488372,28.9534884 C399.825581,31.0465116 395.290698,30.5232558 392.325581,27.5581395 L388.488372,23.7209302 C387.616279,22.8488372 386.22093,22.8488372 385.348837,23.7209302 L378.72093,30.3488372 C377.848837,31.2209302 377.848837,32.6162791 378.72093,33.4883721 L382.55814,37.3255814 C385.523256,40.2906977 386.046512,44.8255814 383.953488,48.4883721 C381.686047,52.5 379.94186,56.6860465 378.72093,61.2209302 C377.674419,65.2325581 374.011628,68.0232558 369.825581,68.0232558 L364.244186,68.0232558 C363.023256,68.0232558 361.976744,69.0697674 361.976744,70.2906977 L361.976744,79.7093023 C361.976744,80.9302326 363.023256,81.9767442 364.244186,81.9767442 L369.825581,81.9767442 C374.011628,81.9767442 377.674419,84.7674419 378.72093,88.7790698 C379.94186,93.1395349 381.686047,97.5 383.953488,101.511628 C386.046512,105.174419 385.523256,109.709302 382.55814,112.674419 L378.72093,116.511628 C377.848837,117.383721 377.848837,118.77907 378.72093,119.651163 L385.348837,126.27907 C386.22093,127.151163 387.616279,127.151163 388.488372,126.27907 L392.325581,122.44186 C394.069767,120.697674 396.511628,119.825581 398.77907,119.825581 Z" id="Shape"></path>
                <path d="M309.620253,562.822785 C309.810127,563.012658 310,563.202532 310,563.392405 C310.759494,564.151899 311.139241,565.101266 311.139241,566.050633 C311.139241,566.240506 311.139241,566.620253 311.139241,566.810127 C311.139241,567.189873 311.139241,567.379747 310.949367,567.56962 C310.759494,567.759494 310.759494,567.949367 310.56962,568.139241 C310.56962,568.329114 310.379747,568.518987 310.189873,568.708861 C309.43038,569.468354 308.481013,569.848101 307.531646,569.848101 C306.582278,569.848101 305.632911,569.468354 304.873418,568.708861 C304.683544,568.518987 304.493671,568.329114 304.303797,568.139241 C304.113924,567.949367 304.113924,567.759494 303.924051,567.56962 C303.924051,567.379747 303.734177,567 303.734177,566.810127 C303.734177,566.620253 303.734177,566.240506 303.734177,566.050633 C303.734177,565.101266 304.113924,564.151899 304.873418,563.202532 C305.822785,562.443038 307.151899,562.063291 308.291139,562.253165 C308.670886,562.253165 308.860759,562.443038 309.050633,562.443038 C309.240506,562.632911 309.43038,562.632911 309.620253,562.822785 Z M322.721519,520.481013 C324.810127,520.481013 326.518987,522.189873 326.518987,524.278481 C326.518987,526.367089 324.810127,528.075949 322.721519,528.075949 L239.177215,528.075949 C237.088608,528.075949 235.379747,526.367089 235.379747,524.278481 C235.379747,522.189873 237.088608,520.481013 239.177215,520.481013 L322.721519,520.481013 Z M322.721519,541.367089 C324.810127,541.367089 326.518987,543.075949 326.518987,545.164557 C326.518987,547.253165 324.810127,548.962025 322.721519,548.962025 L239.177215,548.962025 C237.088608,548.962025 235.379747,547.253165 235.379747,545.164557 C235.379747,543.075949 237.088608,541.367089 239.177215,541.367089 L322.721519,541.367089 Z M283.987342,563.392405 C285.316456,561.873418 287.974684,561.873418 289.303797,563.392405 C290.063291,564.151899 290.443038,565.101266 290.443038,566.050633 C290.443038,567 290.063291,567.949367 289.303797,568.708861 C288.544304,569.468354 287.594937,569.848101 286.64557,569.848101 C285.696203,569.848101 284.746835,569.468354 284.177215,568.708861 C283.417722,567.949367 283.037975,567 283.037975,566.050633 C283.037975,565.860759 283.037975,565.481013 283.037975,565.291139 C283.037975,564.911392 283.227848,564.721519 283.227848,564.531646 C283.417722,564.341772 283.417722,564.151899 283.607595,563.962025 C283.607595,563.772152 283.797468,563.582278 283.987342,563.392405 Z M265.759494,562.253165 C267.848101,562.253165 269.556962,563.962025 269.556962,566.050633 C269.556962,568.139241 267.848101,569.848101 265.759494,569.848101 L239.177215,569.848101 C237.088608,569.848101 235.379747,568.139241 235.379747,566.050633 C235.379747,563.962025 237.088608,562.253165 239.177215,562.253165 L265.759494,562.253165 Z M328.417722,492 L231.582278,492 C216.962025,492 205,503.962025 205,518.582278 L205,569.848101 C205,583.708861 215.632911,595.101266 229.113924,596.240506 L240.506329,620.734177 C241.075949,621.873418 242.21519,622.822785 243.544304,622.822785 C243.734177,622.822785 243.734177,622.822785 243.924051,622.822785 C245.063291,622.822785 246.202532,622.253165 246.962025,621.303797 L266.139241,596.43038 L328.417722,596.43038 C343.037975,596.43038 355,584.468354 355,569.848101 L355,518.582278 C355,503.962025 343.037975,492 328.417722,492 Z M347.405063,569.848101 C347.405063,580.291139 338.860759,588.835443 328.417722,588.835443 L264.240506,588.835443 C263.101266,588.835443 261.962025,589.405063 261.202532,590.35443 L244.683544,612 L235,591.113924 C234.43038,589.78481 233.101266,588.835443 231.582278,588.835443 C221.139241,588.835443 212.594937,580.291139 212.594937,569.848101 L212.594937,518.582278 C212.594937,508.139241 221.139241,499.594937 231.582278,499.594937 L328.417722,499.594937 C338.860759,499.594937 347.405063,508.139241 347.405063,518.582278 L347.405063,569.848101 Z" id="Shape"></path>
                <path d="M490.37037,173 L390,173 C382.037037,173 375.37037,179.481481 375.37037,187.62963 C375.37037,189.666667 377.037037,191.333333 379.074074,191.333333 C381.111111,191.333333 382.777778,189.666667 382.777778,187.62963 C382.777778,183.740741 385.925926,180.407407 390,180.407407 L490.37037,180.407407 C494.259259,180.407407 497.592593,183.555556 497.592593,187.62963 L497.592593,288 C497.592593,291.888889 494.444444,295.222222 490.37037,295.222222 C488.333333,295.222222 486.666667,296.888889 486.666667,298.925926 C486.666667,300.962963 488.333333,302.62963 490.37037,302.62963 C498.333333,302.62963 505,296.148148 505,288 L505,187.62963 C505,179.481481 498.518519,173 490.37037,173 Z M386.481481,213.740741 C378.333333,213.740741 371.666667,220.407407 371.666667,228.555556 C371.666667,236.703704 378.333333,243.37037 386.481481,243.37037 C394.62963,243.37037 401.296296,236.703704 401.296296,228.555556 C401.296296,220.407407 394.62963,213.740741 386.481481,213.740741 Z M386.481481,235.962963 C382.407407,235.962963 379.074074,232.62963 379.074074,228.555556 C379.074074,224.481481 382.407407,221.148148 386.481481,221.148148 C390.555556,221.148148 393.888889,224.481481 393.888889,228.555556 C393.888889,232.62963 390.555556,235.962963 386.481481,235.962963 Z M470,193.37037 L369.62963,193.37037 C361.666667,193.37037 355,199.851852 355,208 L355,308.37037 C355,316.333333 361.481481,323 369.62963,323 L470,323 C477.962963,323 484.62963,316.518519 484.62963,308.37037 L484.62963,208 C484.62963,199.851852 478.148148,193.37037 470,193.37037 Z M369.62963,315.592593 C365.740741,315.592593 362.407407,312.444444 362.407407,308.37037 L362.407407,300.222222 L389.074074,265.222222 C390.37037,263.555556 392.222222,262.444444 394.444444,262.444444 C396.481481,262.259259 398.518519,263.185185 400,264.666667 L448.148148,315.777778 L369.62963,315.777778 L369.62963,315.592593 Z M477.222222,308.37037 C477.222222,312.259259 474.074074,315.592593 470,315.592593 L458.518519,315.592593 L424.62963,279.851852 L431.666667,270.592593 C432.962963,268.925926 434.814815,267.814815 437.037037,267.814815 C439.074074,267.62963 441.111111,268.555556 442.592593,270.037037 L477.222222,306.703704 L477.222222,308.37037 Z M477.222222,295.962963 L447.962963,265.037037 C445,261.888889 440.925926,260.222222 436.481481,260.407407 C432.222222,260.592593 428.148148,262.814815 425.555556,266.148148 L419.259259,274.296296 L405.185185,259.296296 C402.222222,256.148148 398.148148,254.481481 393.703704,254.666667 C389.444444,254.851852 385.37037,257.074074 382.777778,260.407407 L362.407407,288 L362.407407,208 C362.407407,204.111111 365.555556,200.777778 369.62963,200.777778 L470,200.777778 C473.888889,200.777778 477.222222,203.925926 477.222222,208 L477.222222,295.962963 Z" id="Shape"></path>
            </g>
        </g>
    </g>
</svg>