<?xml version="1.0" encoding="UTF-8"?>
<svg width="58px" height="49px" viewBox="0 0 58 49" version="1.1" xmlns="http://www.w3.org/2000/svg" xmlns:xlink="http://www.w3.org/1999/xlink">
    <!-- Generator: Sketch 50.2 (55047) - http://www.bohemiancoding.com/sketch -->
    <title>Group</title>
    <desc>Created with Sketch.</desc>
    <defs>
        <radialGradient cx="100%" cy="0%" fx="100%" fy="0%" r="828.793505%" gradientTransform="translate(1.000000,0.000000),scale(0.137931,1.000000),translate(-1.000000,-0.000000)" id="radialGradient-1">
            <stop stop-color="#B700FF" offset="0%"></stop>
            <stop stop-color="#007AB3" offset="100%"></stop>
        </radialGradient>
    </defs>
    <g id="Page-1" stroke="none" stroke-width="1" fill="none" fill-rule="evenodd">
        <g id="Menu-icon" transform="translate(-21.000000, -26.000000)" fill="url(#radialGradient-1)" fill-rule="nonzero">
            <g id="Group" transform="translate(21.000000, 26.000000)">
                <path d="M54,21 L4,21 C1.8,21 0,22.8 0,25 C0,27.2 1.8,29 4,29 L54,29 C56.2,29 58,27.2 58,25 C58,22.8 56.2,21 54,21 Z" id="Shape"></path>
                <path d="M54,0 L4,0 C1.8,0 0,1.8 0,4 C0,6.2 1.8,8 4,8 L54,8 C56.2,8 58,6.2 58,4 C58,1.8 56.2,0 54,0 Z" id="Shape"></path>
                <path d="M58,45 C58,42.8 56.2,41 54,41 L4,41 C1.8,41 0,42.8 0,45 C0,47.2 1.8,49 4,49 L54,49 C56.2,49 58,47.2 58,45 Z" id="Shape"></path>
            </g>
        </g>
    </g>
</svg>