<?xml version="1.0" encoding="UTF-8"?>
<svg width="49px" height="40px" viewBox="0 0 49 40" version="1.1" xmlns="http://www.w3.org/2000/svg" xmlns:xlink="http://www.w3.org/1999/xlink">
    <!-- Generator: Sketch 49.1 (51147) - http://www.bohemiancoding.com/sketch -->
    <title>Messages</title>
    <desc>Created with Sketch.</desc>
    <defs></defs>
    <g id="Page-1" stroke="none" stroke-width="1" fill="none" fill-rule="evenodd">
        <g id="Desktop" transform="translate(-816.000000, -483.000000)" fill="#392F62" fill-rule="nonzero">
            <g id="Nav-Bar" transform="translate(0.000000, 473.000000)">
                <path d="M861.362289,36.7183728 C861.524922,36.4473192 861.741765,36.2304763 861.904397,35.9594226 C864.343879,32.3815149 865.265462,28.044657 864.506511,23.7620099 C863.747561,19.3709413 861.308079,15.5761907 857.62175,13.0282867 C853.989631,10.4803827 849.544352,9.50458965 845.153283,10.2635398 C843.472751,10.5345934 841.90064,11.1309113 840.382739,11.8898615 C838.864839,11.1309113 837.292728,10.5345934 835.612196,10.2635398 C826.559005,8.63721807 817.831079,14.7088191 816.258968,23.7620099 C815.500017,28.044657 816.4216,32.3815149 818.861082,35.9594226 C819.023714,36.2304763 819.240557,36.4473192 819.40319,36.7183728 L816.313178,48.2652569 C816.150546,48.8073641 816.367389,49.403682 816.855286,49.7289464 C817.072128,49.8915786 817.343182,50 817.614236,50 C817.885289,50 818.156343,49.9457893 818.373186,49.7831571 L828.727434,42.8983952 C829.106909,43.0068167 829.432173,43.0610274 829.811648,43.1152381 C830.787441,43.2778703 831.763234,43.3862917 832.739028,43.3862917 C835.395353,43.3862917 838.051678,42.7357631 840.382739,41.5431272 C842.768011,42.7899738 845.370126,43.3862917 848.026451,43.3862917 C849.002245,43.3862917 849.978038,43.2778703 850.953831,43.1152381 C850.953831,43.1152381 850.953831,43.1152381 850.953831,43.1152381 C851.333306,43.0610274 851.65857,42.952606 852.038045,42.8983952 L862.392293,49.7831571 C862.609136,49.9457893 862.88019,50 863.151243,50 C863.422297,50 863.693351,49.8915786 863.964404,49.7289464 C864.39809,49.403682 864.614933,48.8073641 864.506511,48.2652569 L861.362289,36.7183728 Z M840.382739,38.3446945 C837.184307,36.2304763 834.961667,32.9236221 834.256928,29.1288715 C833.281135,23.5993777 835.774828,18.0698839 840.382739,15.0340834 C844.990651,18.0698839 847.484344,23.5993777 846.508551,29.1288715 C845.803812,32.9236221 843.581172,36.2304763 840.382739,38.3446945 Z M830.299545,40.404702 C829.811648,40.2962805 829.323752,40.1878591 828.890066,40.0794376 C828.890066,40.0794376 828.835855,40.0794376 828.835855,40.0794376 C828.781645,40.0794376 828.727434,40.0794376 828.673223,40.0794376 C828.619013,40.0794376 828.619013,40.0794376 828.564802,40.0794376 C828.510591,40.0794376 828.45638,40.0794376 828.40217,40.0794376 C828.347959,40.0794376 828.293748,40.0794376 828.293748,40.0794376 C828.239537,40.0794376 828.185327,40.0794376 828.185327,40.1336483 C828.131116,40.1336483 828.131116,40.1336483 828.076905,40.1878591 C828.022695,40.1878591 828.022695,40.2420698 827.968484,40.2420698 C827.914273,40.2420698 827.860062,40.2962805 827.860062,40.2962805 C827.860062,40.2962805 827.805852,40.2962805 827.805852,40.2962805 L819.945297,45.5547207 L822.276358,36.8267942 C822.276358,36.7725835 822.276358,36.7725835 822.276358,36.7183728 C822.276358,36.6641621 822.276358,36.6099513 822.276358,36.5557406 C822.276358,36.5015299 822.276358,36.4473192 822.276358,36.4473192 C822.276358,36.3931084 822.276358,36.3388977 822.276358,36.3388977 C822.276358,36.284687 822.276358,36.2304763 822.276358,36.2304763 C822.276358,36.1762655 822.276358,36.1220548 822.222147,36.1220548 C822.222147,36.0678441 822.167936,36.0136334 822.167936,36.0136334 C822.167936,35.9594226 822.113726,35.9594226 822.113726,35.9052119 C822.113726,35.8510012 822.059515,35.7967905 822.005304,35.7967905 C822.005304,35.7967905 821.951094,35.7425798 821.951094,35.7425798 C821.68004,35.4173154 821.408986,35.0378404 821.137933,34.6583653 C819.077925,31.6225648 818.318975,27.9904463 818.969504,24.4667493 C820.324772,16.877248 827.589009,11.8356508 835.17851,13.1909188 C836.045882,13.353551 836.913253,13.5703939 837.726414,13.8956582 C833.010081,17.6361982 830.570599,23.7620099 831.654813,29.8336109 C832.359552,33.8452044 834.527981,37.4773229 837.726414,39.9710162 C835.341142,40.5673341 832.739028,40.8383878 830.299545,40.404702 Z M853.068049,40.2420698 C853.013838,40.2420698 853.013838,40.2420698 853.068049,40.2420698 C852.959627,40.1878591 852.959627,40.1878591 852.905417,40.1336483 C852.851206,40.1336483 852.796995,40.0794376 852.796995,40.0794376 C852.742784,40.0794376 852.742784,40.0794376 852.688574,40.0252269 C852.634363,40.0252269 852.580152,40.0252269 852.525942,39.9710162 C852.471731,39.9710162 852.471731,39.9710162 852.41752,39.9710162 C852.363309,39.9710162 852.309099,39.9710162 852.254888,39.9710162 C852.200677,39.9710162 852.200677,39.9710162 852.146466,39.9710162 C852.092256,39.9710162 852.038045,39.9710162 851.983834,39.9710162 C851.983834,39.9710162 851.929624,39.9710162 851.929624,39.9710162 C851.441727,40.0794376 850.953831,40.2420698 850.520145,40.2962805 C850.520145,40.2962805 850.520145,40.2962805 850.520145,40.2962805 C847.972241,40.8383878 845.424337,40.5673341 843.093276,39.6999626 C846.291708,37.2062693 848.405927,33.6283615 849.164877,29.5625573 C850.249091,23.4909563 847.809609,17.3651445 843.093276,13.6246046 C843.906437,13.2993403 844.773808,13.0824974 845.64118,12.9198652 C849.327509,12.2693365 853.013838,13.0824974 856.103849,15.1967156 C859.13965,17.3109338 861.199657,20.5093665 861.850186,24.1956957 C862.500715,27.7736034 861.687554,31.4057219 859.681757,34.3873117 C859.410703,34.7667867 859.13965,35.1462618 858.868596,35.4715261 C858.868596,35.4715261 858.814385,35.5257369 858.814385,35.5257369 C858.760175,35.5799476 858.760175,35.6341583 858.705964,35.6341583 C858.705964,35.688369 858.651753,35.688369 858.651753,35.7425798 C858.651753,35.7967905 858.597543,35.7967905 858.597543,35.8510012 C858.597543,35.9052119 858.597543,35.9594226 858.543332,35.9594226 C858.543332,36.0136334 858.543332,36.0678441 858.543332,36.0678441 C858.543332,36.1220548 858.543332,36.1762655 858.543332,36.1762655 C858.543332,36.2304763 858.543332,36.284687 858.543332,36.284687 C858.543332,36.3388977 858.543332,36.3931084 858.543332,36.4473192 C858.543332,36.5015299 858.543332,36.5015299 858.543332,36.5557406 L860.874393,45.2836671 L853.068049,40.2420698 Z" id="Messages"></path>
            </g>
        </g>
    </g>
</svg>