<?xml version="1.0" encoding="UTF-8"?>
<svg width="500px" height="500px" viewBox="0 0 500 500" version="1.1" xmlns="http://www.w3.org/2000/svg" xmlns:xlink="http://www.w3.org/1999/xlink">
    <!-- Generator: Sketch 50.2 (55047) - http://www.bohemiancoding.com/sketch -->
    <title>sharing</title>
    <desc>Created with Sketch.</desc>
    <defs></defs>
    <g id="sharing" stroke="none" stroke-width="1" fill="none" fill-rule="evenodd">
        <path d="M275.5,245.693383 L275.5,292.490494 C275.5,295.96866 277.134628,299.69785 280.378348,302.904569 C283.873884,306.360232 283.873884,311.700604 280.378348,315.156267 C278.74858,316.767445 276.304715,317.73384 274.230769,317.73384 C272.156823,317.73384 269.712959,316.767445 268.08319,315.156267 C261.204193,308.355737 257.961538,301.333803 257.961538,293.060837 L257.961538,255.36364 C247.007485,259.666143 235.824659,261.840304 224.038462,261.840304 L217.692308,261.840304 C205.906111,261.840304 194.723284,259.666143 183.769231,255.36364 L183.769231,293.060837 C183.769231,312.699188 161.967849,329.424081 134.198681,336.46316 L133.835847,336.555133 L133.461538,336.555133 C133.760295,336.555133 133.130987,336.691692 132.892429,336.749761 C132.064576,336.951273 130.982642,337.231252 129.751463,337.565436 C126.531866,338.439346 122.771919,339.549763 118.746816,340.840841 C107.58677,344.420499 96.3128053,348.747914 85.8578743,353.73008 C56.80945,367.572741 39.5384615,383.739988 39.5384615,401.425856 L39.5384615,438.34981 L280,438.34981 C285.110737,438.34981 288.769231,441.966571 288.769231,447.053232 C288.769231,452.139892 285.110737,455.756654 280,455.756654 L30.7692308,455.756654 C25.6584934,455.756654 22,452.139892 22,447.053232 L22,401.425856 C22,376.522432 42.5487174,355.92324 76.5163508,339.060368 C87.8033457,333.457059 99.8586632,328.64895 112.038105,324.587692 C116.372078,323.14252 120.439021,321.887463 124.241725,320.792173 C125.588582,320.404239 126.807082,320.06369 127.99503,319.739834 C128.469346,319.610527 129.656415,319.290916 129.761462,319.261245 L129.877745,319.230901 C150.14476,314.37373 166.230769,303.194732 166.230769,293.060837 L166.230769,245.641216 C141.317602,229.152547 125.846154,200.973861 125.846154,170.437262 L125.846154,112.8327 C125.846154,62.5981122 167.096861,22 218.269231,22 L224.615385,22 C275.303045,22 316.461538,62.6890049 316.461538,112.8327 L316.461538,171.007605 C316.461538,201.76822 300.793481,229.881712 275.500031,245.693364 Z M224.615385,244.43346 C265.743832,244.43346 298.923077,211.46361 298.923077,170.437262 L298.923077,112.8327 C298.923077,72.2077445 265.572677,39.4068441 224.038462,39.4068441 L217.692308,39.4068441 C176.649199,39.4068441 143.384615,72.2919837 143.384615,112.8327 L143.384615,171.007605 C143.384615,211.63256 176.735015,244.43346 218.269231,244.43346 L224.615385,244.43346 Z M352.088667,352.529086 L404.383563,320.877018 C403.252441,317.45834 402.769231,313.856294 402.769231,309.60076 C402.769231,289.11486 419.696955,272.380228 440.384615,272.380228 C461.072276,272.380228 478,289.11486 478,309.60076 C478,330.086661 461.072276,346.821293 440.384615,346.821293 C429.772153,346.821293 420.304208,342.830475 413.3094,335.69688 L361.073621,367.840104 C362.138583,370.864932 362.615385,374.265264 362.615385,378.041825 C362.615385,381.634728 362.044915,384.848295 360.887268,388.68019 L410.132201,418.518283 C417.292926,409.201282 428.442861,403.558935 440.384615,403.558935 C461.072276,403.558935 478,420.293568 478,440.779468 C478,461.265368 461.072276,478 440.384615,478 C419.696955,478 402.769231,461.265368 402.769231,440.779468 C402.769231,439.430326 402.859134,438.348977 403.078712,436.503853 C403.155268,435.860552 403.211125,435.376473 403.251349,434.985221 L352.08397,403.570068 C344.926026,410.962356 335.427428,415.262357 325,415.262357 C304.31234,415.262357 287.384615,398.527725 287.384615,378.041825 C287.384615,357.555925 304.31234,340.821293 325,340.821293 C335.067626,340.821293 344.985271,345.266225 352.088667,352.529086 Z M440.384615,420.965779 C429.341507,420.965779 420.307692,429.896546 420.307692,440.779468 C420.307692,451.662389 429.341507,460.593156 440.384615,460.593156 C451.427724,460.593156 460.461538,451.662389 460.461538,440.779468 C460.461538,429.896546 451.427724,420.965779 440.384615,420.965779 Z M440.384615,289.787072 C429.341507,289.787072 420.307692,298.717839 420.307692,309.60076 C420.307692,320.483682 429.341507,329.414449 440.384615,329.414449 C451.427724,329.414449 460.461538,320.483682 460.461538,309.60076 C460.461538,298.717839 451.427724,289.787072 440.384615,289.787072 Z M325,358.228137 C313.956891,358.228137 304.923077,367.158904 304.923077,378.041825 C304.923077,388.924746 313.956891,397.855513 325,397.855513 C336.043109,397.855513 345.076923,388.924746 345.076923,378.041825 C345.076923,367.158904 336.043109,358.228137 325,358.228137 Z" id="Shape" stroke="#FFFAFF" stroke-width="6" fill="#FFFAFF" fill-rule="nonzero"></path>
    </g>
</svg>