<?xml version="1.0" encoding="UTF-8"?>
<svg width="434px" height="82px" viewBox="0 0 434 82" version="1.1" xmlns="http://www.w3.org/2000/svg" xmlns:xlink="http://www.w3.org/1999/xlink">
    <!-- Generator: Sketch 50.2 (55047) - http://www.bohemiancoding.com/sketch -->
    <title>title</title>
    <desc>Created with Sketch.</desc>
    <defs></defs>
    <g id="Page-1" stroke="none" stroke-width="1" fill="none" fill-rule="evenodd">
        <g id="kyle-permuy" transform="translate(-33.000000, -34.000000)" fill="#610084" fill-rule="nonzero">
            <path d="M82.6,42.3904169 C80.5,34.1904169 66,33.3904169 59.7,34.2904169 C57.1,34.6904169 55.2,35.6904169 54.1,37.2904169 C53.6,38.0904169 53.3,38.7904169 53.1,39.4904169 C51.6,39.9904169 50.6,40.8904169 50.1,41.6904169 C47.5,44.5904169 49.2,49.7904169 51.5,54.0904169 C50.4,55.1904169 49.7,56.5904169 49.7,58.1904169 L49.7,60.6904169 C49.7,62.9904169 51,64.9904169 53,65.8904169 C53.1,69.9904169 55,73.5904169 57.9,76.0904169 L57.9,83.9904169 C57.9,85.4904169 55.2,87.3904169 52,88.1904169 C51.8,88.1904169 47.3,89.3904169 42.8,91.5904169 C36.3,94.7904169 33,98.5904169 33,102.990417 L33,110.990417 C33,112.090417 33.9,112.990417 35,112.990417 L67.3,112.990417 L67.9,112.990417 L76.2,112.990417 C77.3,112.990417 78.2,112.090417 78.2,110.990417 C78.2,109.890417 77.3,108.990417 76.2,108.990417 L67.9,108.990417 L67.3,108.990417 L37,108.990417 L37,102.990417 C37,97.2904169 48.9,93.0904169 53,91.9904169 C57.5,90.8904169 62,87.9904169 62,83.9904169 L62,78.4904169 C63.6,79.0904169 65.4,79.4904169 67.2,79.4904169 L67.7,79.4904169 C69.9,79.4904169 72,78.9904169 73.9,78.0904169 L73.9,83.9904169 C73.9,85.4904169 74.5,86.9904169 75.7,88.1904169 C76.1,88.5904169 76.6,88.7904169 77.2,88.7904169 C77.7,88.7904169 78.2,88.5904169 78.6,88.2904169 C79.4,87.4904169 79.4,86.2904169 78.7,85.4904169 C78.2,84.9904169 77.9,84.4904169 77.9,83.9904169 L77.9,75.1904169 C80.2,72.7904169 81.7,69.4904169 81.9,65.8904169 C83.9,64.9904169 85.2,62.9904169 85.2,60.6904169 L85.2,58.1904169 C85.2,55.9904169 83.9,54.0904169 82.1,53.0904169 C83.1,48.6904169 83.3,45.0904169 82.6,42.3904169 Z M81.2,60.6904169 C81.2,61.5904169 80.5,62.2904169 79.7,62.3904169 C78.7,62.4904169 77.9,63.3904169 77.9,64.3904169 L77.9,65.3904169 C77.9,70.9904169 73.3,75.5904169 67.7,75.5904169 L67.2,75.5904169 C61.6,75.4904169 57,70.9904169 57,65.3904169 L57,64.3904169 C57,63.3904169 56.2,62.4904169 55.2,62.3904169 C54.3,62.2904169 53.7,61.5904169 53.7,60.6904169 L53.7,58.1904169 C53.7,57.4904169 54.2,56.7904169 54.8,56.5904169 C55.4,56.3904169 55.8,55.9904169 56,55.3904169 C56.2,54.7904169 56.1,54.1904169 55.8,53.6904169 C52.8,48.6904169 52.2,45.1904169 53,44.2904169 C53.2,44.0904169 53.2,44.0904169 53.3,43.8904169 C53.4,43.7904169 53.7,43.2904169 54.9,43.2904169 C55.5,43.2904169 56.1,43.0904169 56.5,42.5904169 C56.9,42.0904169 57,41.5904169 56.9,40.9904169 C56.9,40.9904169 56.8,40.2904169 57.3,39.6904169 C57.8,38.9904169 58.8,38.5904169 60.2,38.3904169 C61.3,38.1904169 62.6,38.1904169 64,38.1904169 C69.9,38.1904169 77.7,39.6904169 78.6,43.5904169 C79.2,45.9904169 78.8,49.5904169 77.6,54.1904169 C77.4,54.7904169 77.5,55.3904169 77.9,55.8904169 C78.3,56.3904169 78.8,56.6904169 79.4,56.6904169 C80.3,56.6904169 81,57.4904169 81,58.3904169 L81,60.6904169 L81.2,60.6904169 Z M96.5138439,68.0509668 C97.4138439,68.2509668 98.0138439,69.0509668 98.0138439,69.9509668 L97.8138439,85.9509668 L107.013844,85.9509668 C107.713844,85.9509668 108.313844,86.2509668 108.713844,86.8509668 C109.113844,87.3509668 109.113844,88.1509668 108.813844,88.7509668 L95.8138439,114.750967 C95.4138439,115.450967 94.7138439,115.850967 94.0138439,115.850967 C93.8138439,115.850967 93.7138439,115.750967 93.5138439,115.750967 C92.6138439,115.550967 92.0138439,114.750967 92.0138439,113.850967 L92.0138439,97.8509668 L83.0138439,97.8509668 C82.3138439,97.8509668 81.7138439,97.5509668 81.3138439,96.9509668 C80.9138439,96.4509668 80.9138439,95.6509668 81.2138439,95.0509668 L94.2138439,69.0509668 C94.7138439,68.2509668 95.6138439,67.8509668 96.5138439,68.0509668 Z M141.552,75.864 L139.248,75.864 L139.248,95 L130.48,95 L130.48,50.2 L139.248,50.2 L139.248,70.04 L141.296,69.144 L153.648,50.2 L163.632,50.2 L150.576,69.016 L147.12,71.448 L150.704,73.944 L165.616,95 L154.8,95 L141.552,75.864 Z M178.06,80.984 L179.212,85.976 L179.596,85.976 L180.428,80.92 L185.292,63 L193.868,63 L184.14,91.864 C183.329329,94.2533453 182.55067,96.4399901 181.804,98.424 C181.05733,100.40801 180.236004,102.125326 179.34,103.576 C178.443996,105.026674 177.452005,106.146663 176.364,106.936 C175.275995,107.725337 173.985341,108.12 172.492,108.12 C170.273322,108.12 168.502673,107.757337 167.18,107.032 L168.716,100.376 C169.356003,100.632001 169.995997,100.76 170.636,100.76 C171.617338,100.76 172.566662,100.344004 173.484,99.512 C174.401338,98.6799958 175.094664,97.1760109 175.564,95 L162.188,63 L172.172,63 L178.06,80.984 Z M205.48,84.248 C205.48,85.7413408 205.671998,86.8293299 206.056,87.512 C206.440002,88.1946701 207.058662,88.536 207.912,88.536 C208.424003,88.536 208.925331,88.4933338 209.416,88.408 C209.906669,88.3226662 210.514663,88.1306682 211.24,87.832 L212.136,94.36 C211.45333,94.701335 210.408007,95.042665 209,95.384 C207.591993,95.725335 206.141341,95.896 204.648,95.896 C202.215988,95.896 200.360006,95.3306723 199.08,94.2 C197.799994,93.0693277 197.16,91.2026797 197.16,88.6 L197.16,50.2 L205.48,50.2 L205.48,84.248 Z M241.22,92.248 C239.939994,93.2720051 238.201344,94.1359965 236.004,94.84 C233.806656,95.5440035 231.470679,95.896 228.996,95.896 C223.833308,95.896 220.057345,94.392015 217.668,91.384 C215.278655,88.375985 214.084,84.2480262 214.084,79 C214.084,73.3679718 215.427987,69.1440141 218.116,66.328 C220.804013,63.5119859 224.579976,62.104 229.444,62.104 C231.065341,62.104 232.643992,62.3173312 234.18,62.744 C235.716008,63.1706688 237.081327,63.8746618 238.276,64.856 C239.470673,65.8373382 240.430663,67.1599917 241.156,68.824 C241.881337,70.4880083 242.244,72.557321 242.244,75.032 C242.244,75.9280045 242.190667,76.8879949 242.084,77.912 C241.977333,78.9360051 241.817334,80.0026611 241.604,81.112 L222.404,81.112 C222.532001,83.8000134 223.225327,85.8266598 224.484,87.192 C225.742673,88.5573402 227.779986,89.24 230.596,89.24 C232.345342,89.24 233.913326,88.973336 235.3,88.44 C236.686674,87.906664 237.742663,87.3626694 238.468,86.808 L241.22,92.248 Z M229.316,68.76 C227.139989,68.76 225.529339,69.4106602 224.484,70.712 C223.438661,72.0133398 222.809334,73.7519891 222.596,75.928 L234.5,75.928 C234.670668,73.6239885 234.318671,71.8533395 233.444,70.616 C232.569329,69.3786605 231.193343,68.76 229.316,68.76 Z M264.316,50.648 C266.108009,50.306665 268.081323,50.040001 270.236,49.848 C272.390677,49.655999 274.534656,49.56 276.668,49.56 C278.886678,49.56 281.115989,49.7413315 283.356,50.104 C285.596011,50.4666685 287.611991,51.1919946 289.404,52.28 C291.196009,53.3680054 292.657328,54.882657 293.788,56.824 C294.918672,58.765343 295.484,61.2933178 295.484,64.408 C295.484,67.2240141 294.993338,69.602657 294.012,71.544 C293.030662,73.485343 291.729341,75.0746605 290.108,76.312 C288.486659,77.5493395 286.641344,78.4453306 284.572,79 C282.502656,79.5546694 280.358678,79.832 278.14,79.832 L277.116,79.832 C276.646664,79.832 276.156003,79.8213334 275.644,79.8 C275.131997,79.7786666 274.630669,79.7466669 274.14,79.704 C273.649331,79.6613331 273.297334,79.6186669 273.084,79.576 L273.084,95 L264.316,95 L264.316,50.648 Z M277.372,57.112 C276.518662,57.112 275.708004,57.1439997 274.94,57.208 C274.171996,57.2720003 273.553336,57.3466662 273.084,57.432 L273.084,71.96 C273.254668,72.0026669 273.510665,72.0453331 273.852,72.088 C274.193335,72.1306669 274.555998,72.1626666 274.94,72.184 C275.324002,72.2053334 275.697332,72.216 276.06,72.216 L276.86,72.216 C278.012006,72.216 279.153328,72.1093344 280.284,71.896 C281.414672,71.6826656 282.427996,71.2880029 283.324,70.712 C284.220004,70.1359971 284.934664,69.3360051 285.468,68.312 C286.001336,67.2879949 286.268,65.9440083 286.268,64.28 C286.268,62.871993 286.012003,61.7093379 285.5,60.792 C284.987997,59.8746621 284.316004,59.1386694 283.484,58.584 C282.651996,58.0293306 281.702672,57.6453344 280.636,57.432 C279.569328,57.2186656 278.481339,57.112 277.372,57.112 Z M323.928,92.248 C322.647994,93.2720051 320.909344,94.1359965 318.712,94.84 C316.514656,95.5440035 314.178679,95.896 311.704,95.896 C306.541308,95.896 302.765345,94.392015 300.376,91.384 C297.986655,88.375985 296.792,84.2480262 296.792,79 C296.792,73.3679718 298.135987,69.1440141 300.824,66.328 C303.512013,63.5119859 307.287976,62.104 312.152,62.104 C313.773341,62.104 315.351992,62.3173312 316.888,62.744 C318.424008,63.1706688 319.789327,63.8746618 320.984,64.856 C322.178673,65.8373382 323.138663,67.1599917 323.864,68.824 C324.589337,70.4880083 324.952,72.557321 324.952,75.032 C324.952,75.9280045 324.898667,76.8879949 324.792,77.912 C324.685333,78.9360051 324.525334,80.0026611 324.312,81.112 L305.112,81.112 C305.240001,83.8000134 305.933327,85.8266598 307.192,87.192 C308.450673,88.5573402 310.487986,89.24 313.304,89.24 C315.053342,89.24 316.621326,88.973336 318.008,88.44 C319.394674,87.906664 320.450663,87.3626694 321.176,86.808 L323.928,92.248 Z M312.024,68.76 C309.847989,68.76 308.237339,69.4106602 307.192,70.712 C306.146661,72.0133398 305.517334,73.7519891 305.304,75.928 L317.208,75.928 C317.378668,73.6239885 317.026671,71.8533395 316.152,70.616 C315.277329,69.3786605 313.901343,68.76 312.024,68.76 Z M348.404,70.808 C347.081327,70.3386643 345.886672,70.104 344.82,70.104 C343.326659,70.104 342.078672,70.4986627 341.076,71.288 C340.073328,72.0773373 339.401335,73.0906605 339.06,74.328 L339.06,95 L330.74,95 L330.74,63 L337.204,63 L338.164,67.224 L338.42,67.224 C339.145337,65.6453254 340.12666,64.4293376 341.364,63.576 C342.60134,62.7226624 344.051992,62.296 345.716,62.296 C346.825339,62.296 348.083993,62.5306643 349.492,63 L348.404,70.808 Z M371.28,95 L371.28,77.592 C371.28,74.6479853 371.002669,72.5573395 370.448,71.32 C369.893331,70.0826605 368.741342,69.464 366.992,69.464 C365.541326,69.464 364.368004,69.8586627 363.472,70.648 C362.575996,71.4373373 361.893336,72.4506605 361.424,73.688 L361.424,95 L353.104,95 L353.104,63 L359.568,63 L360.528,67.224 L360.784,67.224 C361.765338,65.8586598 363.013326,64.6640051 364.528,63.64 C366.042674,62.6159949 367.994655,62.104 370.384,62.104 C372.43201,62.104 374.10666,62.5199958 375.408,63.352 C376.70934,64.1840042 377.722663,65.5813235 378.448,67.544 C379.429338,65.8799917 380.687992,64.5573382 382.224,63.576 C383.760008,62.5946618 385.615989,62.104 387.792,62.104 C389.584009,62.104 391.109327,62.3173312 392.368,62.744 C393.626673,63.1706688 394.650663,63.9066614 395.44,64.952 C396.229337,65.9973386 396.815998,67.3946579 397.2,69.144 C397.584002,70.8933421 397.776,73.1119866 397.776,75.8 L397.776,95 L389.456,95 L389.456,77.016 C389.456,74.4986541 389.189336,72.610673 388.656,71.352 C388.122664,70.093327 386.938676,69.464 385.104,69.464 C383.610659,69.464 382.426671,69.8693293 381.552,70.68 C380.677329,71.4906707 380.026669,72.599993 379.6,74.008 L379.6,95 L371.28,95 Z M412.524,63 L412.524,81.176 C412.524,83.7786797 412.83333,85.6559942 413.452,86.808 C414.07067,87.9600058 415.275991,88.536 417.068,88.536 C418.646675,88.536 419.958661,88.0666714 421.004,87.128 C422.049339,86.1893286 422.827997,85.0373402 423.34,83.672 L423.34,63 L431.66,63 L431.66,85.272 C431.66,87.0213421 431.745332,88.7386582 431.916,90.424 C432.086668,92.1093418 432.342665,93.6346598 432.684,95 L426.412,95 L424.94,90.264 L424.684,90.264 C423.702662,91.8853414 422.337342,93.229328 420.588,94.296 C418.838658,95.362672 416.769345,95.896 414.38,95.896 C412.758659,95.896 411.308006,95.6826688 410.028,95.256 C408.747994,94.8293312 407.681338,94.1253382 406.828,93.144 C405.974662,92.1626618 405.324002,90.8400083 404.876,89.176 C404.427998,87.5119917 404.204,85.4213459 404.204,82.904 L404.204,63 L412.524,63 Z M450.504,80.984 L451.656,85.976 L452.04,85.976 L452.872,80.92 L457.736,63 L466.312,63 L456.584,91.864 C455.773329,94.2533453 454.99467,96.4399901 454.248,98.424 C453.50133,100.40801 452.680004,102.125326 451.784,103.576 C450.887996,105.026674 449.896005,106.146663 448.808,106.936 C447.719995,107.725337 446.429341,108.12 444.936,108.12 C442.717322,108.12 440.946673,107.757337 439.624,107.032 L441.16,100.376 C441.800003,100.632001 442.439997,100.76 443.08,100.76 C444.061338,100.76 445.010662,100.344004 445.928,99.512 C446.845338,98.6799958 447.538664,97.1760109 448.008,95 L434.632,63 L444.616,63 L450.504,80.984 Z" id="title"></path>
        </g>
    </g>
</svg>