<?xml version="1.0" encoding="UTF-8"?>
<svg width="500px" height="500px" viewBox="0 0 500 500" version="1.1" xmlns="http://www.w3.org/2000/svg" xmlns:xlink="http://www.w3.org/1999/xlink">
    <!-- Generator: Sketch 50.2 (55047) - http://www.bohemiancoding.com/sketch -->
    <title>yrs-exp</title>
    <desc>Created with Sketch.</desc>
    <defs></defs>
    <g id="yrs-exp" stroke="none" stroke-width="1" fill="none" fill-rule="evenodd">
        <path d="M308.65,345.25 C308.65,381.216846 294.133479,411.983205 265.1,437.55 C233.033173,465.716808 192.083583,479.8 142.25,479.8 C101.516463,479.8 71.616762,470.266762 52.55,451.2 C40.416606,439.066606 34.35,425.200078 34.35,409.6 C34.35,396.166599 38.5749578,385.441707 47.025,377.425 C55.4750423,369.408293 66.8499285,365.4 81.15,365.4 C92.416723,365.4 101.733297,368.649968 109.1,375.15 C116.466704,381.650032 120.15,389.883283 120.15,399.85 C120.15,415.016742 109.966769,426.93329 89.6,435.6 C81.3666255,439.066684 77.25,442.533316 77.25,446 C77.25,451.633361 82.883277,456.724977 94.15,461.275 C105.416723,465.825023 117.7666,468.1 131.2,468.1 C164.133498,468.1 190.891564,456.833446 211.475,434.3 C232.058436,411.766554 242.35,382.300182 242.35,345.9 C242.35,272.6663 209.416996,236.05 143.55,236.05 C137.049968,236.05 132.283349,236.266664 129.25,236.7 L124.7,236.7 C119.066639,236.7 116.25,234.75002 116.25,230.85 C116.25,227.816651 121.449948,225.433342 131.85,223.7 C162.183485,219.366645 185.583251,208.208423 202.05,190.225 C218.516749,172.241577 226.75,149.166808 226.75,121 C226.75,93.266528 219.600072,71.0584167 205.3,54.375 C190.999929,37.6915833 171.716788,29.35 147.45,29.35 C129.683245,29.35 114.191733,33.1416287 100.975,40.725 C87.7582673,48.3083712 81.15,57.0832835 81.15,67.05 C81.15,70.9500195 84.183303,73.5499935 90.25,74.85 C118.850143,81.783368 133.15,93.6999155 133.15,110.6 C133.15,132.70011 121.666782,143.75 98.7,143.75 C83.966593,143.75 72.1583778,139.41671 63.275,130.75 C54.3916223,122.08329 49.95,110.600072 49.95,96.3 C49.95,72.899883 60.0248993,53.2917458 80.175,37.475 C100.325101,21.6582543 128.383154,13.75 164.35,13.75 C205.516873,13.75 236.933225,24.3665605 258.6,45.6 C280.266775,66.8334395 291.1,91.5331925 291.1,119.7 C291.1,158.700195 272.683518,187.516573 235.85,206.15 C222.849935,212.650032 201.833479,218.066645 172.8,222.4 L172.8,226.95 C208.766847,228.250006 237.79989,236.266593 259.9,251 C292.400163,272.666775 308.65,304.083127 308.65,345.25 Z" id="3" fill="#FFFAFF"></path>
        <polygon id="+" fill="#FFFAFF" points="333.078125 269.0625 333.078125 232.359375 390.734375 232.359375 390.734375 174.703125 427.71875 174.703125 427.71875 232.359375 485.375 232.359375 485.375 269.0625 427.71875 269.0625 427.71875 327 390.734375 327 390.734375 269.0625"></polygon>
    </g>
</svg>